# xmcd
#
# Track frame offsets:
#	182
#	21535
#	38867
#	60555
#	77502
#	96497
#	121330
#	143607
#	163602
#	177105
#	182352
#	209500
#	258185
#	291317
#
# Disc length: 4469 seconds
#
# Revision: 0
# Processed by: cddbd v1.4PL0 Copyright (c) Steve Scherf et al.
# Submitted via: EasyCDDAExtractor 4.5.0.2
#
DISCID=c111730e
DTITLE=George Harrison and Eric Clapton - Live Tokio 1991
DYEAR=1991
DGENRE=blues
TTITLE0=I want to tell you
TTITLE1=Old brown shoe
TTITLE2=Taxman
TTITLE3=Give me love
TTITLE4=If I needed someone
TTITLE5=Something
TTITLE6=What life is
TTITLE7=Dark horse
TTITLE8=Piggies
TTITLE9=Eric's blues
TTITLE10=Pretending
TTITLE11=Old love
TTITLE12=Badge
TTITLE13=Wonderfull tonight
EXTD=
EXTT0=
EXTT1=
EXTT2=
EXTT3=
EXTT4=
EXTT5=
EXTT6=
EXTT7=
EXTT8=
EXTT9=
EXTT10=
EXTT11=
EXTT12=
EXTT13=
PLAYORDER=
